<svg xmlns="http://www.w3.org/2000/svg" width="256" height="256" viewBox="0 0 256 256"><path fill="#243e83" d="M129.439 24.773h-2.878c-55.864 0-101.312 45.448-101.312 101.312v3.83c0 55.864 45.448 101.312 101.312 101.312h2.878c55.864 0 101.312-45.448 101.312-101.311v-3.831c0-55.864-45.448-101.312-101.312-101.312zm44.071 144.503c-2.327 11.139-13.944 15.72-24.323 15.428l-.04.24c-30.47-5.273-56.47-38.652-64.22-67.343-1.618-9.83-5.159-20.429-1.261-30.115 3.55-7.349 9.713-16.942 18.923-16.408 8.482.387 7.97.458 10.598 8.343 1.334 3.857 2.57 7.749 3.921 11.6 1.09 3.41 4.506 7.268.826 10.325-3.793 4.54-15.826 5.336-14.134 12.765 3.943 11.311 8.42 22.71 17.125 31.266 9.936 8.854 12.9 15.772 26.35 3.675 1.75-1.332 4.207-2.727 6.303-1.394 6.263 4.891 11.969 10.569 18.226 15.532 2.696 2.456 2.657 3.054 1.706 6.086z"/><path fill="#282828" d="M129.439 234.227h-2.878c-13.081 0-25.849-2.403-37.946-7.143a3 3 0 0 1 2.189-5.587c11.398 4.466 23.428 6.73 35.757 6.73h2.878c54.21 0 98.312-44.102 98.312-98.311a3 3 0 1 1 6 0c0 57.517-46.794 104.311-104.312 104.311zm-53.325-13.473a2.99 2.99 0 0 1-1.496-.402 104.991 104.991 0 0 1-17.104-12.309 3.001 3.001 0 0 1 3.977-4.493 98.979 98.979 0 0 0 16.124 11.604 3 3 0 0 1-1.501 5.6zm-28.328-24.2c-.874 0-1.74-.38-2.334-1.113-14.962-18.486-23.203-41.757-23.203-65.525v-3.831c0-57.518 46.794-104.312 104.312-104.312h2.878c24.93 0 49.075 8.97 67.989 25.26 18.712 16.115 31.148 38.322 35.017 62.532a3 3 0 0 1-5.926.946c-3.645-22.811-15.367-43.74-33.007-58.932a98.236 98.236 0 0 0-64.073-23.806h-2.878c-54.21 0-98.312 44.102-98.312 98.312v3.83c0 22.4 7.766 44.33 21.868 61.751a3 3 0 0 1-2.33 4.887zm101.36-8.61a3.02 3.02 0 0 1-.51-.044c-31.406-5.435-58.527-39.614-66.604-69.516a3 3 0 0 1 5.793-1.565c9.5 35.179 38.067 60.383 60.706 64.957.238-.053.487-.077.74-.071 3.47.102 6.935-.404 10.006-1.45a3 3 0 1 1 1.936 5.68c-3.386 1.153-7.138 1.764-10.92 1.782-.364.15-.753.227-1.146.227zm21.102-8.83a3 3 0 0 1-2.198-5.04c1.53-1.648 1.906-2.457 2.524-5.412.019-.096.044-.19.074-.284.123-.393.396-1.264.444-1.634-.11-.16-.412-.516-1.235-1.27a26.353 26.353 0 0 1-2.47-2.21 32.718 32.718 0 0 0-1.655-1.552 3 3 0 0 1 3.953-4.514c.902.79 1.446 1.33 1.925 1.805.577.571 1.032 1.022 2.058 1.836.054.043.106.087.156.133 3.602 3.28 3.824 5.08 2.592 9.06-.741 3.51-1.477 5.438-3.968 8.122a2.99 2.99 0 0 1-2.2.96zm-34.709-20.29c-.1 0-.2-.002-.3-.004-5.56-.152-9.933-4.387-16.46-11.346-9.171-9.037-13.828-20.948-17.812-32.376a3.066 3.066 0 0 1-.092-.321c-1.608-7.063 4.991-10.122 9.36-12.145 2.178-1.01 4.432-2.055 5.396-3.209a2.98 2.98 0 0 1 .386-.384c.771-.641.943-.999-.572-4.237-.43-.918-.874-1.868-1.194-2.868-.71-2.019-1.413-4.13-2.115-6.24a477.818 477.818 0 0 0-1.784-5.293l-.458-1.385c-.703-2.137-1.31-3.983-1.76-4.296-.594-.413-3.065-.526-5.683-.646-5.783-.336-11.17 4.586-16.038 14.623-2.258 5.694-1.593 11.946-.535 17.856a3 3 0 1 1-5.906 1.057c-1.22-6.824-1.955-14.12.911-21.244.025-.063.053-.124.082-.185 6.038-12.499 13.355-18.586 21.797-18.099 9.063.415 10.266 1.262 12.831 9.06l.44 1.33a463.38 463.38 0 0 1 1.795 5.326c.693 2.08 1.385 4.161 2.112 6.23.228.712.574 1.45.94 2.23 1.308 2.796 3.484 7.446-.824 11.221-1.832 2.063-4.61 3.35-7.299 4.596-4.808 2.229-6.41 3.326-6.06 5.231 3.742 10.72 8.1 21.842 16.33 29.932.03.028.058.057.087.087 5.326 5.68 9.058 9.41 12.288 9.497l.119.002c2.366 0 5.448-1.892 9.681-5.94.082-.078.167-.151.257-.22 4.57-3.478 7.814-2.756 9.729-1.538.082.052.16.108.237.168 1.731 1.351 3.567 2.876 5.778 4.796a3 3 0 0 1-3.935 4.53c-2.055-1.786-3.765-3.208-5.362-4.461-.352-.13-1.232.103-2.686 1.185-5.49 5.223-9.611 7.48-13.68 7.48z"/></svg>